<svg width="46" height="46" viewBox="0 0 46 46" fill="none" xmlns="http://www.w3.org/2000/svg">
<circle cx="23" cy="23" r="23" fill="url(#paint0_linear_448_16)"/>
<g clip-path="url(#clip0_448_16)">
<path d="M30.8796 23C30.8796 23.3109 30.8233 23.6125 30.7106 23.9048C30.5979 24.197 30.4477 24.4395 30.26 24.6323L19.8949 35.3587C19.4818 35.7862 18.956 36 18.3176 36C17.6791 36 17.1534 35.7862 16.7403 35.3587C16.3272 34.9312 16.1206 34.3871 16.1206 33.7265C16.1206 33.0658 16.3272 32.5217 16.7403 32.0942L25.5281 23L16.7403 13.9058C16.3272 13.4783 16.1206 12.9342 16.1206 12.2735C16.1206 11.6129 16.3272 11.0688 16.7403 10.6413C17.1534 10.2138 17.6791 10 18.3176 10C18.956 10 19.4818 10.2138 19.8949 10.6413L30.26 21.3677C30.4853 21.6009 30.6453 21.8535 30.7399 22.1256C30.8345 22.3976 30.8811 22.6891 30.8796 23Z" fill="#FFFEFA"/>
</g>
<defs>
<linearGradient id="paint0_linear_448_16" x1="2.16107" y1="3.85906" x2="39.3624" y2="44.4564" gradientUnits="userSpaceOnUse">
<stop stop-color="#D8A784"/>
<stop offset="1" stop-color="#D8A784" stop-opacity="0.7"/>
</linearGradient>
<clipPath id="clip0_448_16">
<rect width="26" height="25" fill="white" transform="translate(11 36) rotate(-90)"/>
</clipPath>
</defs>
</svg>
