<svg width="93" height="93" viewBox="0 0 93 93" fill="none" xmlns="http://www.w3.org/2000/svg">
<circle cx="46.5" cy="46.5" r="46.5" fill="url(#paint0_linear_283_377)"/>
<path d="M63.2591 42.8939C61.287 40.68 58.5533 39.4609 55.5614 39.4609C55.4632 39.4609 55.3653 39.4625 55.2678 39.4652V32.3978C55.2678 31.4986 54.5388 30.7695 53.6395 30.7695H52.0112V22.6283C52.0112 21.7291 51.2822 21 50.3829 21H42.7844C41.8853 21 41.1562 21.729 41.1562 22.6283V30.7695H39.5279C38.6287 30.7695 37.8996 31.4985 37.8996 32.3978V39.4653C37.8021 39.4626 37.7043 39.4609 37.606 39.4609C34.614 39.4609 31.8803 40.6801 29.9083 42.8939C28.0329 44.9994 27 47.8155 27 50.8239C27 57.1801 30.4874 62.2687 32.5662 64.7361C35.7379 68.5006 39.596 70.9329 42.3954 70.9329H50.772C53.5719 70.9329 57.4304 68.4997 60.6019 64.7342C62.6803 62.2665 66.1673 57.1778 66.1673 50.824C66.1672 47.8156 65.1345 44.9994 63.2591 42.8939ZM44.4127 24.2565H48.7547V30.7695H44.4127V24.2565ZM41.1563 34.0259H52.0112V40.1222C50.426 40.7447 48.9967 41.7996 47.7826 43.2592C47.4909 43.6097 47.054 43.8107 46.5836 43.8107C46.1133 43.8107 45.6763 43.6097 45.3849 43.2592C44.1709 41.7995 42.7414 40.7446 41.1562 40.1222V34.0259H41.1563ZM58.1113 62.6363C55.3244 65.9453 52.3096 67.6764 50.7721 67.6764H42.3955C40.858 67.6764 37.8436 65.9458 35.057 62.6381C32.8059 59.9659 31.2642 56.9209 30.6103 53.9462C35.5473 51.9649 41.044 52.1454 45.8745 54.4872C48.8477 55.9286 52.1655 56.6962 55.4696 56.7067C55.4929 56.7067 55.5159 56.7068 55.5391 56.7068C57.743 56.7067 59.9537 56.3688 62.0656 55.7198C61.2643 58.1124 59.9155 60.494 58.1113 62.6363ZM62.8605 51.9741C57.8468 54.0855 52.2231 53.9461 47.295 51.5571C44.3188 50.1141 40.9973 49.3466 37.6897 49.3376C37.6697 49.3375 37.6502 49.3375 37.6302 49.3375C35.1314 49.3375 32.6234 49.7712 30.2613 50.6013C30.3615 46.0916 33.4841 42.7175 37.6062 42.7175C39.6582 42.7175 41.4329 43.6005 42.8812 45.3417C43.7933 46.4385 45.1428 47.0673 46.5837 47.0673C48.0245 47.0673 49.3741 46.4384 50.2863 45.3417C51.7345 43.6005 53.5092 42.7175 55.5613 42.7175C59.7512 42.7175 62.9107 46.2025 62.9107 50.824C62.9107 51.2036 62.8935 51.5874 62.8605 51.9741Z" fill="#FFFEFA"/>
<defs>
<linearGradient id="paint0_linear_283_377" x1="4.36913" y1="7.80201" x2="79.5805" y2="89.8792" gradientUnits="userSpaceOnUse">
<stop stop-color="#D8A784"/>
<stop offset="1" stop-color="#D8A784" stop-opacity="0.7"/>
</linearGradient>
</defs>
</svg>
