<svg width="93" height="93" viewBox="0 0 93 93" fill="none" xmlns="http://www.w3.org/2000/svg">
<circle cx="46.5" cy="46.5" r="46.5" fill="url(#paint0_linear_378_2)"/>
<path d="M55.3031 29.1216H37.6968C35.7751 29.1216 34.2534 30.6293 34.2534 32.5526V36.3235C34.2534 37.9116 35.307 39.2525 36.6803 39.6711V63.4057C36.6803 63.4721 36.7081 63.5385 36.7112 63.608C36.8611 66.1616 39.1026 71 46.4899 71C53.3303 71 55.8762 66.3779 56.2485 63.934C56.2748 63.7594 56.318 63.5818 56.318 63.4057V39.6727C57.6929 39.254 58.7465 37.9131 58.7465 36.3251V32.5526C58.7465 30.6293 57.2233 29.1216 55.3031 29.1216ZM55.2614 35.1155C55.2614 35.7705 54.7299 36.3019 54.0749 36.3019H54.0209C53.3659 36.3019 52.8314 36.8333 52.8314 37.4883V63.4088C52.8314 63.4088 52.1547 67.5195 46.493 67.5195C40.4435 67.5195 40.1562 63.4088 40.1562 63.4088V37.4868C40.1562 36.8318 39.6247 36.3003 38.9697 36.3003H38.9141C38.2591 36.3003 37.7277 35.7689 37.7277 35.1139V33.7916C37.7277 33.1366 38.2591 32.6051 38.9141 32.6051H54.0688C54.7238 32.6051 55.2552 33.1366 55.2552 33.7916V35.1155H55.2614Z" fill="#FFFEFA"/>
<path d="M46.4962 65.8158C50.4664 65.8158 50.9314 62.4976 50.9314 62.4976V51.5093H42.061V62.4976C42.0641 62.4929 42.2557 65.8158 46.4962 65.8158Z" fill="#FFFEFA"/>
<path d="M47.1016 46.5782C48.3182 46.5782 49.3045 45.5919 49.3045 44.3753C49.3045 43.1586 48.3182 42.1724 47.1016 42.1724C45.885 42.1724 44.8987 43.1586 44.8987 44.3753C44.8987 45.5919 45.885 46.5782 47.1016 46.5782Z" fill="#FFFEFA"/>
<path d="M44.2948 38.9651C45.5123 38.9651 46.4992 37.9781 46.4992 36.7606C46.4992 35.5431 45.5123 34.5562 44.2948 34.5562C43.0773 34.5562 42.0903 35.5431 42.0903 36.7606C42.0903 37.9781 43.0773 38.9651 44.2948 38.9651Z" fill="#FFFEFA"/>
<path d="M50.908 27.2106C52.0888 27.2106 53.0461 26.2534 53.0461 25.0726C53.0461 23.8918 52.0888 22.9346 50.908 22.9346C49.7272 22.9346 48.77 23.8918 48.77 25.0726C48.77 26.2534 49.7272 27.2106 50.908 27.2106Z" fill="#FFFEFA"/>
<path d="M43.3585 24.5397C44.0598 24.5397 44.6283 23.9712 44.6283 23.2698C44.6283 22.5685 44.0598 22 43.3585 22C42.6571 22 42.0886 22.5685 42.0886 23.2698C42.0886 23.9712 42.6571 24.5397 43.3585 24.5397Z" fill="#FFFEFA"/>
<defs>
<linearGradient id="paint0_linear_378_2" x1="4.36913" y1="7.80201" x2="79.5805" y2="89.8792" gradientUnits="userSpaceOnUse">
<stop stop-color="#D8A784"/>
<stop offset="1" stop-color="#D8A784" stop-opacity="0.7"/>
</linearGradient>
</defs>
</svg>
